<svg width="112" height="33" viewBox="0 0 112 33" fill="none" xmlns="http://www.w3.org/2000/svg">
<rect x="9.3291" y="17.7671" width="0.349817" height="3.63469" fill="#00B4A9"/>
<rect width="0.335578" height="21.7007" transform="matrix(0.73711 0.675772 -0.73711 0.675772 24.8408 1.76874)" fill="#00B4A9"/>
<rect x="1.86621" y="4.08319" width="0.349817" height="3.63469" fill="#00B4A9"/>
<rect width="0.335578" height="7.15899" transform="matrix(0.73711 -0.675772 0.73711 0.675772 2.66016 10.544)" fill="#00B4A9"/>
<ellipse cx="1.9823" cy="2.47976" rx="1.9823" ry="1.81734" fill="#00B4A9"/>
<ellipse cx="1.9823" cy="9.32198" rx="1.9823" ry="1.81734" fill="#00B4A9"/>
<ellipse cx="16.9081" cy="9.32198" rx="1.9823" ry="1.81734" fill="#00B4A9"/>
<ellipse cx="9.44519" cy="16.1636" rx="1.9823" ry="1.81734" fill="#00B4A9"/>
<ellipse cx="9.44519" cy="23.0053" rx="1.9823" ry="1.81734" fill="#00B4A9"/>
<ellipse cx="24.371" cy="23.0053" rx="1.9823" ry="1.81734" fill="#FFC700"/>
<ellipse cx="24.371" cy="2.47976" rx="1.9823" ry="1.81734" fill="#00B4A9"/>
<path fill-rule="evenodd" clip-rule="evenodd" d="M9.44519 4.2968C10.54 4.2968 11.4275 3.48314 11.4275 2.47945C11.4275 1.47576 10.54 0.662109 9.44519 0.662109C8.3504 0.662109 7.46289 1.47576 7.46289 2.47945C7.46289 3.48314 8.3504 4.2968 9.44519 4.2968ZM9.44566 3.97583C10.3473 3.97583 11.0781 3.30576 11.0781 2.47919C11.0781 1.65262 10.3473 0.982555 9.44566 0.982555C8.54407 0.982555 7.81318 1.65262 7.81318 2.47919C7.81318 3.30576 8.54407 3.97583 9.44566 3.97583Z" fill="#00B4A9"/>
<path fill-rule="evenodd" clip-rule="evenodd" d="M1.9823 17.9812C3.07709 17.9812 3.9646 17.1675 3.9646 16.1638C3.9646 15.1601 3.07709 14.3465 1.9823 14.3465C0.887505 14.3465 0 15.1601 0 16.1638C0 17.1675 0.887505 17.9812 1.9823 17.9812ZM1.98279 17.6602C2.88438 17.6602 3.61527 16.9902 3.61527 16.1636C3.61527 15.337 2.88438 14.667 1.98279 14.667C1.08119 14.667 0.350305 15.337 0.350305 16.1636C0.350305 16.9902 1.08119 17.6602 1.98279 17.6602Z" fill="#00B4A9"/>
<path fill-rule="evenodd" clip-rule="evenodd" d="M16.9071 17.9812C18.0019 17.9812 18.8894 17.1675 18.8894 16.1638C18.8894 15.1601 18.0019 14.3465 16.9071 14.3465C15.8123 14.3465 14.9248 15.1601 14.9248 16.1638C14.9248 17.1675 15.8123 17.9812 16.9071 17.9812ZM16.9076 17.6602C17.8092 17.6602 18.54 16.9902 18.54 16.1636C18.54 15.337 17.8092 14.667 16.9076 14.667C16.006 14.667 15.2751 15.337 15.2751 16.1636C15.2751 16.9902 16.006 17.6602 16.9076 17.6602Z" fill="#00B4A9"/>
<path fill-rule="evenodd" clip-rule="evenodd" d="M24.37 17.9812C25.4648 17.9812 26.3523 17.1675 26.3523 16.1638C26.3523 15.1601 25.4648 14.3465 24.37 14.3465C23.2752 14.3465 22.3877 15.1601 22.3877 16.1638C22.3877 17.1675 23.2752 17.9812 24.37 17.9812ZM24.3706 17.6602C25.2721 17.6602 26.003 16.9902 26.003 16.1636C26.003 15.337 25.2721 14.667 24.3706 14.667C23.469 14.667 22.7381 15.337 22.7381 16.1636C22.7381 16.9902 23.469 17.6602 24.3706 17.6602Z" fill="#00B4A9"/>
<path fill-rule="evenodd" clip-rule="evenodd" d="M1.9823 24.8224C3.07709 24.8224 3.9646 24.0088 3.9646 23.0051C3.9646 22.0014 3.07709 21.1877 1.9823 21.1877C0.887505 21.1877 0 22.0014 0 23.0051C0 24.0088 0.887505 24.8224 1.9823 24.8224ZM1.98279 24.5015C2.88438 24.5015 3.61527 23.8314 3.61527 23.0049C3.61527 22.1783 2.88438 21.5082 1.98279 21.5082C1.08119 21.5082 0.350305 22.1783 0.350305 23.0049C0.350305 23.8314 1.08119 24.5015 1.98279 24.5015Z" fill="#00B4A9"/>
<path fill-rule="evenodd" clip-rule="evenodd" d="M16.9071 24.8224C18.0019 24.8224 18.8894 24.0088 18.8894 23.0051C18.8894 22.0014 18.0019 21.1877 16.9071 21.1877C15.8123 21.1877 14.9248 22.0014 14.9248 23.0051C14.9248 24.0088 15.8123 24.8224 16.9071 24.8224ZM16.9076 24.5015C17.8092 24.5015 18.54 23.8314 18.54 23.0049C18.54 22.1783 17.8092 21.5082 16.9076 21.5082C16.006 21.5082 15.2751 22.1783 15.2751 23.0049C15.2751 23.8314 16.006 24.5015 16.9076 24.5015Z" fill="#00B4A9"/>
<path fill-rule="evenodd" clip-rule="evenodd" d="M24.37 11.1393C25.4648 11.1393 26.3523 10.3257 26.3523 9.32198C26.3523 8.31829 25.4648 7.50464 24.37 7.50464C23.2752 7.50464 22.3877 8.31829 22.3877 9.32198C22.3877 10.3257 23.2752 11.1393 24.37 11.1393ZM24.3706 10.8184C25.2721 10.8184 26.003 10.1483 26.003 9.32172C26.003 8.49515 25.2721 7.82508 24.3706 7.82508C23.469 7.82508 22.7381 8.49515 22.7381 9.32172C22.7381 10.1483 23.469 10.8184 24.3706 10.8184Z" fill="#00B4A9"/>
<path fill-rule="evenodd" clip-rule="evenodd" d="M16.9071 4.2968C18.0019 4.2968 18.8894 3.48314 18.8894 2.47945C18.8894 1.47576 18.0019 0.662109 16.9071 0.662109C15.8123 0.662109 14.9248 1.47576 14.9248 2.47945C14.9248 3.48314 15.8123 4.2968 16.9071 4.2968ZM16.9076 3.97583C17.8092 3.97583 18.54 3.30576 18.54 2.47919C18.54 1.65262 17.8092 0.982555 16.9076 0.982555C16.006 0.982555 15.2751 1.65262 15.2751 2.47919C15.2751 3.30576 16.006 3.97583 16.9076 3.97583Z" fill="#00B4A9"/>
<path fill-rule="evenodd" clip-rule="evenodd" d="M9.44519 11.1393C10.54 11.1393 11.4275 10.3257 11.4275 9.32198C11.4275 8.31829 10.54 7.50464 9.44519 7.50464C8.3504 7.50464 7.46289 8.31829 7.46289 9.32198C7.46289 10.3257 8.3504 11.1393 9.44519 11.1393ZM9.44566 10.8184C10.3473 10.8184 11.0781 10.1483 11.0781 9.32172C11.0781 8.49515 10.3473 7.82508 9.44566 7.82508C8.54407 7.82508 7.81318 8.49515 7.81318 9.32172C7.81318 10.1483 8.54407 10.8184 9.44566 10.8184Z" fill="#00B4A9"/>
<path d="M37.8951 0H34.3564L43.0991 13.6448V24.2363H46.0133V13.6448L54.9642 0H51.4255L44.5562 10.7823L37.8951 0Z" fill="#00B4A9"/>
<path d="M60.5844 0H57.8784V24.2363H60.5844V0Z" fill="#00B4A9"/>
<path d="M71.2005 22.9004L63.7068 9.16017H66.9333L72.6576 19.7516L77.8616 9.16017H81.1921L69.1189 32.6331H65.9966L71.2005 22.9004Z" fill="#00B4A9"/>
<path d="M84.3145 9.16017V3.81674H87.0206V9.16017H89.7267V11.4502H87.0206V24.2363H84.3145V11.4502H82.4411V9.16017H84.3145Z" fill="#00B4A9"/>
<path d="M95.3469 9.16017H92.6409V24.2363H95.3469V9.16017Z" fill="#00B4A9"/>
<path d="M95.9714 5.62969C95.9714 6.63095 95.0861 7.44264 93.9939 7.44264C92.9018 7.44264 92.0164 6.63095 92.0164 5.62969C92.0164 4.62842 92.9018 3.81674 93.9939 3.81674C95.0861 3.81674 95.9714 4.62842 95.9714 5.62969Z" fill="#00B4A9"/>
<path d="M111.882 10.4014C111.094 9.90009 109.4 8.96906 106.8 8.96906C101.757 8.96906 98.0537 12.2993 98.0537 16.8471C98.0537 21.3232 101.718 24.6177 106.8 24.6177C108.336 24.6177 110.227 24.2596 112 23.0779V19.9983C110.503 21.6455 108.415 22.3259 106.721 22.3259C103.806 22.3259 100.969 20.428 100.969 16.8113C100.969 13.1945 103.727 11.2608 106.76 11.2608C108.218 11.2608 110.385 11.7622 111.882 13.481V10.4014Z" fill="#FFC700"/>
</svg>
